<svg xmlns="http://www.w3.org/2000/svg" width="100%" height="auto">

  <path d="M1168.6,548.6L1222.2,310.4L1023.6,343Z" fill="rgb(77,180,168)" shape-rendering="crispEdges"></path>
  <path d="M1168.6,548.6L1379.6,383.3L1222.2,310.4Z" fill="rgb(75,177,167)" shape-rendering="crispEdges"></path>
  <path d="M1222.3,167.8L974.2,231.5L1023.6,343Z" fill="rgb(82,188,170)" shape-rendering="crispEdges"></path>
  <path d="M1430.4,220.9L1222.3,167.8L1222.2,310.4Z" fill="rgb(79,183,169)" shape-rendering="crispEdges"></path>
  <path d="M1222.2,310.4L1222.3,167.8L1023.6,343Z" fill="rgb(80,185,169)" shape-rendering="crispEdges"></path>
  <path d="M759.8,595.4L924.9,629.4L714.7,391.5Z" fill="rgb(79,184,169)" shape-rendering="crispEdges"></path>
  <path d="M1023.6,343L924.9,629.4L1168.6,548.6Z" fill="rgb(76,179,167)" shape-rendering="crispEdges"></path>
  <path d="M1379.6,383.3L1430.4,220.9L1222.2,310.4Z" fill="rgb(76,179,167)" shape-rendering="crispEdges"></path>
  <path d="M1179.2,803.1L1441.3,631L1168.6,548.6Z" fill="rgb(69,167,164)" shape-rendering="crispEdges"></path>
  <path d="M1168.6,548.6L1441.3,631L1379.6,383.3Z" fill="rgb(71,171,165)" shape-rendering="crispEdges"></path>
  <path d="M1379.6,383.3L1584,311.6L1430.4,220.9Z" fill="rgb(74,176,167)" shape-rendering="crispEdges"></path>
  <path d="M924.9,629.4L1179.2,803.1L1168.6,548.6Z" fill="rgb(71,171,165)" shape-rendering="crispEdges"></path>
  <path d="M714.7,391.5L924.9,629.4L1023.6,343Z" fill="rgb(80,185,169)" shape-rendering="crispEdges"></path>
  <path d="M924.9,629.4L945,792.5L1179.2,803.1Z" fill="rgb(71,170,165)" shape-rendering="crispEdges"></path>
  <path d="M815.6,824.2L945,792.5L924.9,629.4Z" fill="rgb(72,173,166)" shape-rendering="crispEdges"></path>
  <path d="M974.2,231.5L714.7,391.5L1023.6,343Z" fill="rgb(82,190,170)" shape-rendering="crispEdges"></path>
  <path d="M1608.6,806.1L1536.4,569.6L1441.3,631Z" fill="rgb(64,160,162)" shape-rendering="crispEdges"></path>
  <path d="M1441.3,631L1536.4,569.6L1379.6,383.3Z" fill="rgb(69,167,164)" shape-rendering="crispEdges"></path>
  <path d="M1414.5,29L1180.6,-11.7L1222.3,167.8Z" fill="rgb(83,191,171)" shape-rendering="crispEdges"></path>
  <path d="M1222.3,167.8L1022.9,-18.3L974.2,231.5Z" fill="rgb(84,193,171)" shape-rendering="crispEdges"></path>
  <path d="M974.2,231.5L733.8,205.7L714.7,391.5Z" fill="rgb(85,194,172)" shape-rendering="crispEdges"></path>
  <path d="M1179.2,803.1L1424.9,760.6L1441.3,631Z" fill="rgb(65,162,163)" shape-rendering="crispEdges"></path>
  <path d="M1180.6,-11.7L1022.9,-18.3L1222.3,167.8Z" fill="rgb(85,195,172)" shape-rendering="crispEdges"></path>
  <path d="M797,-1.5L733.8,205.7L974.2,231.5Z" fill="rgb(87,199,173)" shape-rendering="crispEdges"></path>
  <path d="M1536.4,569.6L1584,311.6L1379.6,383.3Z" fill="rgb(71,170,165)" shape-rendering="crispEdges"></path>
  <path d="M1430.4,220.9L1414.5,29L1222.3,167.8Z" fill="rgb(80,185,169)" shape-rendering="crispEdges"></path>
  <path d="M1549.3,-2.4L1414.5,29L1430.4,220.9Z" fill="rgb(80,185,169)" shape-rendering="crispEdges"></path>
  <path d="M1584,311.6L1592.7,227.9L1430.4,220.9Z" fill="rgb(74,176,167)" shape-rendering="crispEdges"></path>
  <path d="M759.8,595.4L815.6,824.2L924.9,629.4Z" fill="rgb(75,177,167)" shape-rendering="crispEdges"></path>
  <path d="M945,792.5L1186.2,975.8L1179.2,803.1Z" fill="rgb(66,163,163)" shape-rendering="crispEdges"></path>
  <path d="M1022.9,-18.3L797,-1.5L974.2,231.5Z" fill="rgb(88,199,173)" shape-rendering="crispEdges"></path>
  <path d="M965,1015L1186.2,975.8L945,792.5Z" fill="rgb(65,162,163)" shape-rendering="crispEdges"></path>
  <path d="M1179.2,803.1L1418.7,926L1424.9,760.6Z" fill="rgb(63,158,161)" shape-rendering="crispEdges"></path>
  <path d="M1186.2,975.8L1418.7,926L1179.2,803.1Z" fill="rgb(62,157,161)" shape-rendering="crispEdges"></path>
  <path d="M1424.9,760.6L1608.6,806.1L1441.3,631Z" fill="rgb(63,158,161)" shape-rendering="crispEdges"></path>
  <path d="M1592.7,227.9L1549.3,-2.4L1430.4,220.9Z" fill="rgb(77,181,168)" shape-rendering="crispEdges"></path>
  <path d="M1417.2,-175.4L1181.5,-235L1180.6,-11.7Z" fill="rgb(85,194,171)" shape-rendering="crispEdges"></path>
  <path d="M1180.6,-11.7L1181.5,-235L1022.9,-18.3Z" fill="rgb(86,197,172)" shape-rendering="crispEdges"></path>
  <path d="M733.8,205.7L562.3,230.9L714.7,391.5Z" fill="rgb(87,198,172)" shape-rendering="crispEdges"></path>
  <path d="M714.7,391.5L547.1,613L759.8,595.4Z" fill="rgb(81,187,170)" shape-rendering="crispEdges"></path>
  <path d="M759.8,595.4L540.5,739.3L815.6,824.2Z" fill="rgb(76,179,167)" shape-rendering="crispEdges"></path>
  <path d="M635.8,7.7L562.3,230.9L733.8,205.7Z" fill="rgb(90,204,174)" shape-rendering="crispEdges"></path>
  <path d="M562.3,230.9L532.6,377.5L714.7,391.5Z" fill="rgb(86,197,172)" shape-rendering="crispEdges"></path>
  <path d="M1418.7,926L1608.6,806.1L1424.9,760.6Z" fill="rgb(60,154,160)" shape-rendering="crispEdges"></path>
  <path d="M1536.4,569.6L1759.3,511.8L1584,311.6Z" fill="rgb(68,165,164)" shape-rendering="crispEdges"></path>
  <path d="M1584,311.6L1795,400.7L1592.7,227.9Z" fill="rgb(71,171,165)" shape-rendering="crispEdges"></path>
  <path d="M532.6,377.5L547.1,613L714.7,391.5Z" fill="rgb(84,192,171)" shape-rendering="crispEdges"></path>
  <path d="M785.7,1018.8L965,1015L815.6,824.2Z" fill="rgb(68,165,164)" shape-rendering="crispEdges"></path>
  <path d="M815.6,824.2L965,1015L945,792.5Z" fill="rgb(69,167,164)" shape-rendering="crispEdges"></path>
  <path d="M1771.9,725.8L1759.3,511.8L1536.4,569.6Z" fill="rgb(63,158,161)" shape-rendering="crispEdges"></path>
  <path d="M1592.7,227.9L1751.2,-9.8L1549.3,-2.4Z" fill="rgb(77,181,168)" shape-rendering="crispEdges"></path>
  <path d="M735.1,-236.9L635.8,7.7L797,-1.5Z" fill="rgb(92,208,175)" shape-rendering="crispEdges"></path>
  <path d="M797,-1.5L635.8,7.7L733.8,205.7Z" fill="rgb(91,205,174)" shape-rendering="crispEdges"></path>
  <path d="M1417.2,-175.4L1180.6,-11.7L1414.5,29Z" fill="rgb(83,191,171)" shape-rendering="crispEdges"></path>
  <path d="M1022.9,-18.3L1012.6,-279.9L797,-1.5Z" fill="rgb(89,202,174)" shape-rendering="crispEdges"></path>
  <path d="M1549.3,-2.4L1417.2,-175.4L1414.5,29Z" fill="rgb(82,188,170)" shape-rendering="crispEdges"></path>
  <path d="M1759.3,511.8L1795,400.7L1584,311.6Z" fill="rgb(68,165,164)" shape-rendering="crispEdges"></path>
  <path d="M357.1,595.5L540.5,739.3L547.1,613Z" fill="rgb(81,187,170)" shape-rendering="crispEdges"></path>
  <path d="M547.1,613L540.5,739.3L759.8,595.4Z" fill="rgb(79,184,169)" shape-rendering="crispEdges"></path>
  <path d="M625.1,984L785.7,1018.8L815.6,824.2Z" fill="rgb(70,169,165)" shape-rendering="crispEdges"></path>
  <path d="M1441.2,1150.7L1531.3,999.2L1418.7,926Z" fill="rgb(55,147,158)" shape-rendering="crispEdges"></path>
  <path d="M1418.7,926L1531.3,999.2L1608.6,806.1Z" fill="rgb(57,150,159)" shape-rendering="crispEdges"></path>
  <path d="M1608.6,806.1L1771.9,725.8L1536.4,569.6Z" fill="rgb(61,156,161)" shape-rendering="crispEdges"></path>
  <path d="M1441.2,1150.7L1418.7,926L1186.2,975.8Z" fill="rgb(57,150,159)" shape-rendering="crispEdges"></path>
  <path d="M1716.9,938.1L1771.9,725.8L1608.6,806.1Z" fill="rgb(57,149,159)" shape-rendering="crispEdges"></path>
  <path d="M2037.9,400.7L1996.8,225.7L1795,400.7Z" fill="rgb(66,162,163)" shape-rendering="crispEdges"></path>
  <path d="M1616.5,-285.7L1012.6,-279.9L1181.5,-235Z" fill="rgb(84,193,171)" shape-rendering="crispEdges"></path>
  <path d="M1181.5,-235L1012.6,-279.9L1022.9,-18.3Z" fill="rgb(87,198,173)" shape-rendering="crispEdges"></path>
  <path d="M323.7,218.8L426.3,433.7L532.6,377.5Z" fill="rgb(89,201,173)" shape-rendering="crispEdges"></path>
  <path d="M532.6,377.5L426.3,433.7L547.1,613Z" fill="rgb(85,194,171)" shape-rendering="crispEdges"></path>
  <path d="M323.7,218.8L532.6,377.5L562.3,230.9Z" fill="rgb(90,203,174)" shape-rendering="crispEdges"></path>
  <path d="M1795,400.7L1799.9,151.7L1592.7,227.9Z" fill="rgb(71,171,165)" shape-rendering="crispEdges"></path>
  <path d="M1549.3,-2.4L1616.5,-285.7L1417.2,-175.4Z" fill="rgb(81,187,169)" shape-rendering="crispEdges"></path>
  <path d="M785.7,1018.8L1033.3,1142.8L965,1015Z" fill="rgb(64,159,162)" shape-rendering="crispEdges"></path>
  <path d="M965,1015L1033.3,1142.8L1186.2,975.8Z" fill="rgb(62,157,161)" shape-rendering="crispEdges"></path>
  <path d="M1799.9,151.7L1751.2,-9.8L1592.7,227.9Z" fill="rgb(75,177,167)" shape-rendering="crispEdges"></path>
  <path d="M1033.3,1142.8L1176.5,1174.9L1186.2,975.8Z" fill="rgb(59,153,160)" shape-rendering="crispEdges"></path>
  <path d="M392.7,810.3L625.1,984L540.5,739.3Z" fill="rgb(76,178,167)" shape-rendering="crispEdges"></path>
  <path d="M540.5,739.3L625.1,984L815.6,824.2Z" fill="rgb(74,175,166)" shape-rendering="crispEdges"></path>
  <path d="M785.7,1018.8L717.8,1233.3L1033.3,1142.8Z" fill="rgb(63,159,162)" shape-rendering="crispEdges"></path>
  <path d="M1012.6,-279.9L735.1,-236.9L797,-1.5Z" fill="rgb(90,204,174)" shape-rendering="crispEdges"></path>
  <path d="M635.8,7.7L436,-30L562.3,230.9Z" fill="rgb(93,209,176)" shape-rendering="crispEdges"></path>
  <path d="M1516,1130.6L1716.9,938.1L1531.3,999.2Z" fill="rgb(53,144,157)" shape-rendering="crispEdges"></path>
  <path d="M1531.3,999.2L1716.9,938.1L1608.6,806.1Z" fill="rgb(55,148,158)" shape-rendering="crispEdges"></path>
  <path d="M1176.5,1174.9L1441.2,1150.7L1186.2,975.8Z" fill="rgb(57,149,159)" shape-rendering="crispEdges"></path>
  <path d="M426.3,433.7L357.1,595.5L547.1,613Z" fill="rgb(84,192,171)" shape-rendering="crispEdges"></path>
  <path d="M1441.2,1150.7L1516,1130.6L1531.3,999.2Z" fill="rgb(52,144,157)" shape-rendering="crispEdges"></path>
  <path d="M595.1,-264.8L436,-30L635.8,7.7Z" fill="rgb(94,212,176)" shape-rendering="crispEdges"></path>
  <path d="M426.3,433.7L205.9,560.4L357.1,595.5Z" fill="rgb(86,196,172)" shape-rendering="crispEdges"></path>
  <path d="M436,-30L323.7,218.8L562.3,230.9Z" fill="rgb(93,209,176)" shape-rendering="crispEdges"></path>
  <path d="M357.1,595.5L392.7,810.3L540.5,739.3Z" fill="rgb(80,186,169)" shape-rendering="crispEdges"></path>
  <path d="M1751.2,-9.8L1616.5,-285.7L1549.3,-2.4Z" fill="rgb(79,184,169)" shape-rendering="crispEdges"></path>
  <path d="M1417.2,-175.4L1616.5,-285.7L1181.5,-235Z" fill="rgb(82,190,170)" shape-rendering="crispEdges"></path>
  <path d="M735.1,-236.9L595.1,-264.8L635.8,7.7Z" fill="rgb(93,209,176)" shape-rendering="crispEdges"></path>
  <path d="M1012.6,-279.9L595.1,-264.8L735.1,-236.9Z" fill="rgb(91,206,175)" shape-rendering="crispEdges"></path>
  <path d="M1799.9,151.7L1994.8,-25.4L1751.2,-9.8Z" fill="rgb(75,177,167)" shape-rendering="crispEdges"></path>
  <path d="M1751.2,-9.8L1764.7,-247.5L1616.5,-285.7Z" fill="rgb(78,182,168)" shape-rendering="crispEdges"></path>
  <path d="M1795,400.7L1996.8,225.7L1799.9,151.7Z" fill="rgb(69,167,164)" shape-rendering="crispEdges"></path>
  <path d="M2037.9,400.7L1795,400.7L2037.8,590Z" fill="rgb(62,157,161)" shape-rendering="crispEdges"></path>
  <path d="M1795,400.7L1759.3,511.8L2037.8,590Z" fill="rgb(63,158,161)" shape-rendering="crispEdges"></path>
  <path d="M2037.8,590L1759.3,511.8L1771.9,725.8Z" fill="rgb(60,154,160)" shape-rendering="crispEdges"></path>
  <path d="M2014.8,-170.8L1764.7,-247.5L1751.2,-9.8Z" fill="rgb(76,178,167)" shape-rendering="crispEdges"></path>
  <path d="M2044,732.4L2037.8,590L1771.9,725.8Z" fill="rgb(56,149,159)" shape-rendering="crispEdges"></path>
  <path d="M586.5,1192.7L717.8,1233.3L785.7,1018.8Z" fill="rgb(65,162,162)" shape-rendering="crispEdges"></path>
  <path d="M1033.3,1142.8L1133.6,1381.4L1176.5,1174.9Z" fill="rgb(56,148,158)" shape-rendering="crispEdges"></path>
  <path d="M1176.5,1174.9L1354.9,1390.7L1441.2,1150.7Z" fill="rgb(51,143,157)" shape-rendering="crispEdges"></path>
  <path d="M586.5,1192.7L785.7,1018.8L625.1,984Z" fill="rgb(68,166,164)" shape-rendering="crispEdges"></path>
  <path d="M177,214.3L211,352.3L323.7,218.8Z" fill="rgb(93,210,176)" shape-rendering="crispEdges"></path>
  <path d="M323.7,218.8L211,352.3L426.3,433.7Z" fill="rgb(90,204,174)" shape-rendering="crispEdges"></path>
  <path d="M241.5,960.1L353.1,936.7L392.7,810.3Z" fill="rgb(77,181,168)" shape-rendering="crispEdges"></path>
  <path d="M717.8,1233.3L951.5,1326.6L1033.3,1142.8Z" fill="rgb(59,153,160)" shape-rendering="crispEdges"></path>
  <path d="M1441.2,1150.7L1584.2,1367.9L1516,1130.6Z" fill="rgb(48,139,156)" shape-rendering="crispEdges"></path>
  <path d="M138.3,817.2L392.7,810.3L357.1,595.5Z" fill="rgb(82,188,170)" shape-rendering="crispEdges"></path>
  <path d="M392.7,810.3L353.1,936.7L625.1,984Z" fill="rgb(75,177,167)" shape-rendering="crispEdges"></path>
  <path d="M211,352.3L205.9,560.4L426.3,433.7Z" fill="rgb(89,201,173)" shape-rendering="crispEdges"></path>
  <path d="M437.8,1188.3L586.5,1192.7L625.1,984Z" fill="rgb(68,167,164)" shape-rendering="crispEdges"></path>
  <path d="M717.8,1233.3L743.8,1342.9L951.5,1326.6Z" fill="rgb(59,153,160)" shape-rendering="crispEdges"></path>
  <path d="M1976.7,968.5L2044,732.4L1771.9,725.8Z" fill="rgb(53,144,157)" shape-rendering="crispEdges"></path>
  <path d="M2198.6,328.3L2114.7,219.2L2037.9,400.7Z" fill="rgb(63,159,162)" shape-rendering="crispEdges"></path>
  <path d="M1976.7,968.5L1771.9,725.8L1716.9,938.1Z" fill="rgb(53,144,157)" shape-rendering="crispEdges"></path>
  <path d="M2114.7,219.2L1994.8,-25.4L1996.8,225.7Z" fill="rgb(69,168,164)" shape-rendering="crispEdges"></path>
  <path d="M1996.8,225.7L1994.8,-25.4L1799.9,151.7Z" fill="rgb(72,171,165)" shape-rendering="crispEdges"></path>
  <path d="M951.5,1326.6L1133.6,1381.4L1033.3,1142.8Z" fill="rgb(55,148,158)" shape-rendering="crispEdges"></path>
  <path d="M595.1,-264.8L367.5,-170.3L436,-30Z" fill="rgb(96,214,177)" shape-rendering="crispEdges"></path>
  <path d="M154.9,-64.9L177,214.3L323.7,218.8Z" fill="rgb(96,216,177)" shape-rendering="crispEdges"></path>
  <path d="M154.9,-64.9L323.7,218.8L436,-30Z" fill="rgb(97,217,178)" shape-rendering="crispEdges"></path>
  <path d="M211,352.3L12.8,343.8L205.9,560.4Z" fill="rgb(91,206,175)" shape-rendering="crispEdges"></path>
  <path d="M2037.9,400.7L2114.7,219.2L1996.8,225.7Z" fill="rgb(65,162,163)" shape-rendering="crispEdges"></path>
  <path d="M2198.6,328.3L2037.9,400.7L2197.7,515.4Z" fill="rgb(60,154,160)" shape-rendering="crispEdges"></path>
  <path d="M1133.6,1381.4L1354.9,1390.7L1176.5,1174.9Z" fill="rgb(51,142,157)" shape-rendering="crispEdges"></path>
  <path d="M1825.4,1171.1L1976.7,968.5L1716.9,938.1Z" fill="rgb(48,138,155)" shape-rendering="crispEdges"></path>
  <path d="M1825.4,1171.1L1716.9,938.1L1516,1130.6Z" fill="rgb(49,140,156)" shape-rendering="crispEdges"></path>
  <path d="M534.5,1360.1L743.8,1342.9L717.8,1233.3Z" fill="rgb(61,156,161)" shape-rendering="crispEdges"></path>
  <path d="M951.5,1326.6L928.1,1537.8L1133.6,1381.4Z" fill="rgb(55,147,158)" shape-rendering="crispEdges"></path>
  <path d="M1584.2,1367.9L1825.4,1171.1L1516,1130.6Z" fill="rgb(45,135,155)" shape-rendering="crispEdges"></path>
  <path d="M2117.9,987.1L2118.4,725.4L2044,732.4Z" fill="rgb(49,140,156)" shape-rendering="crispEdges"></path>
  <path d="M2044,732.4L2118.4,725.4L2037.8,590Z" fill="rgb(54,146,158)" shape-rendering="crispEdges"></path>
  <path d="M353.1,936.7L437.8,1188.3L625.1,984Z" fill="rgb(72,172,165)" shape-rendering="crispEdges"></path>
  <path d="M586.5,1192.7L534.5,1360.1L717.8,1233.3Z" fill="rgb(64,159,162)" shape-rendering="crispEdges"></path>
  <path d="M241.5,960.1L437.8,1188.3L353.1,936.7Z" fill="rgb(74,176,166)" shape-rendering="crispEdges"></path>
  <path d="M138.3,817.2L241.5,960.1L392.7,810.3Z" fill="rgb(79,184,169)" shape-rendering="crispEdges"></path>
  <path d="M1354.9,1390.7L1584.2,1367.9L1441.2,1150.7Z" fill="rgb(46,137,155)" shape-rendering="crispEdges"></path>
  <path d="M2163.7,9.5L2014.8,-170.8L1994.8,-25.4Z" fill="rgb(72,173,166)" shape-rendering="crispEdges"></path>
  <path d="M1994.8,-25.4L2014.8,-170.8L1751.2,-9.8Z" fill="rgb(75,176,167)" shape-rendering="crispEdges"></path>
  <path d="M2197.7,515.4L2037.9,400.7L2037.8,590Z" fill="rgb(59,152,160)" shape-rendering="crispEdges"></path>
  <path d="M2114.7,219.2L2163.7,9.5L1994.8,-25.4Z" fill="rgb(70,169,165)" shape-rendering="crispEdges"></path>
  <path d="M2118.4,725.4L2197.7,515.4L2037.8,590Z" fill="rgb(55,147,158)" shape-rendering="crispEdges"></path>
  <path d="M3.1,568.5L138.3,817.2L205.9,560.4Z" fill="rgb(86,197,172)" shape-rendering="crispEdges"></path>
  <path d="M205.9,560.4L138.3,817.2L357.1,595.5Z" fill="rgb(84,193,171)" shape-rendering="crispEdges"></path>
  <path d="M367.5,-170.3L154.9,-64.9L436,-30Z" fill="rgb(98,218,178)" shape-rendering="crispEdges"></path>
  <path d="M177,214.3L12.8,343.8L211,352.3Z" fill="rgb(94,211,176)" shape-rendering="crispEdges"></path>
  <path d="M2389.2,147.3L2163.7,9.5L2114.7,219.2Z" fill="rgb(67,164,163)" shape-rendering="crispEdges"></path>
  <path d="M403.9,1305.6L534.5,1360.1L437.8,1188.3Z" fill="rgb(66,162,163)" shape-rendering="crispEdges"></path>
  <path d="M437.8,1188.3L534.5,1360.1L586.5,1192.7Z" fill="rgb(66,162,163)" shape-rendering="crispEdges"></path>
  <path d="M743.8,1342.9L928.1,1537.8L951.5,1326.6Z" fill="rgb(57,150,159)" shape-rendering="crispEdges"></path>
  <path d="M1133.6,1381.4L1363.4,1543.5L1354.9,1390.7Z" fill="rgb(49,140,156)" shape-rendering="crispEdges"></path>
  <path d="M4.1,134.8L12.8,343.8L177,214.3Z" fill="rgb(96,216,177)" shape-rendering="crispEdges"></path>
  <path d="M1976.7,968.5L2117.9,987.1L2044,732.4Z" fill="rgb(48,138,155)" shape-rendering="crispEdges"></path>
  <path d="M2394.5,537.2L2361.4,391.8L2197.7,515.4Z" fill="rgb(55,147,158)" shape-rendering="crispEdges"></path>
  <path d="M2013.8,1216.4L2117.9,987.1L1976.7,968.5Z" fill="rgb(42,132,154)" shape-rendering="crispEdges"></path>
  <path d="M2013.8,1216.4L1976.7,968.5L1825.4,1171.1Z" fill="rgb(42,132,154)" shape-rendering="crispEdges"></path>
  <path d="M1552.9,1555.3L1728.8,1387.6L1584.2,1367.9Z" fill="rgb(42,131,153)" shape-rendering="crispEdges"></path>
  <path d="M1584.2,1367.9L1728.8,1387.6L1825.4,1171.1Z" fill="rgb(41,130,153)" shape-rendering="crispEdges"></path>
  <path d="M819.1,1606.9L928.1,1537.8L743.8,1342.9Z" fill="rgb(58,151,159)" shape-rendering="crispEdges"></path>
  <path d="M1354.9,1390.7L1552.9,1555.3L1584.2,1367.9Z" fill="rgb(44,134,154)" shape-rendering="crispEdges"></path>
  <path d="M367.5,-170.3L226,-275.6L154.9,-64.9Z" fill="rgb(99,220,178)" shape-rendering="crispEdges"></path>
  <path d="M154.9,-64.9L4.1,134.8L177,214.3Z" fill="rgb(99,220,178)" shape-rendering="crispEdges"></path>
  <path d="M595.1,-264.8L226,-275.6L367.5,-170.3Z" fill="rgb(97,216,177)" shape-rendering="crispEdges"></path>
  <path d="M1012.6,-279.9L226,-275.6L595.1,-264.8Z" fill="rgb(94,211,176)" shape-rendering="crispEdges"></path>
  <path d="M1616.5,-285.7L226,-275.6L1012.6,-279.9Z" fill="rgb(89,202,174)" shape-rendering="crispEdges"></path>
  <path d="M12.8,343.8L3.1,568.5L205.9,560.4Z" fill="rgb(91,204,174)" shape-rendering="crispEdges"></path>
  <path d="M1121.8,1570.9L1363.4,1543.5L1133.6,1381.4Z" fill="rgb(51,142,156)" shape-rendering="crispEdges"></path>
  <path d="M226.6,1204.5L403.9,1305.6L437.8,1188.3Z" fill="rgb(69,167,164)" shape-rendering="crispEdges"></path>
  <path d="M640.1,1575.5L819.1,1606.9L743.8,1342.9Z" fill="rgb(60,153,160)" shape-rendering="crispEdges"></path>
  <path d="M226.6,1204.5L437.8,1188.3L241.5,960.1Z" fill="rgb(73,173,166)" shape-rendering="crispEdges"></path>
  <path d="M928.1,1537.8L1121.8,1570.9L1133.6,1381.4Z" fill="rgb(53,145,158)" shape-rendering="crispEdges"></path>
  <path d="M29.6,-78.8L4.1,134.8L154.9,-64.9Z" fill="rgb(101,225,180)" shape-rendering="crispEdges"></path>
  <path d="M12.8,343.8L-189.4,429.8L3.1,568.5Z" fill="rgb(92,208,175)" shape-rendering="crispEdges"></path>
  <path d="M1984.4,1385.7L2013.8,1216.4L1825.4,1171.1Z" fill="rgb(37,127,152)" shape-rendering="crispEdges"></path>
  <path d="M3.1,568.5L19.7,819.9L138.3,817.2Z" fill="rgb(85,195,172)" shape-rendering="crispEdges"></path>
  <path d="M138.3,817.2L-22.9,971.4L241.5,960.1Z" fill="rgb(80,186,169)" shape-rendering="crispEdges"></path>
  <path d="M-5.4,1192.5L226.6,1204.5L241.5,960.1Z" fill="rgb(75,177,167)" shape-rendering="crispEdges"></path>
  <path d="M1363.4,1543.5L1552.9,1555.3L1354.9,1390.7Z" fill="rgb(46,136,155)" shape-rendering="crispEdges"></path>
  <path d="M1728.8,1387.6L1984.4,1385.7L1825.4,1171.1Z" fill="rgb(37,127,152)" shape-rendering="crispEdges"></path>
  <path d="M1121.8,1570.9L1552.9,1555.3L1363.4,1543.5Z" fill="rgb(48,138,155)" shape-rendering="crispEdges"></path>
  <path d="M12.5,-207.2L29.6,-78.8L154.9,-64.9Z" fill="rgb(101,225,180)" shape-rendering="crispEdges"></path>
  <path d="M2197.7,515.4L2361.4,391.8L2198.6,328.3Z" fill="rgb(58,152,160)" shape-rendering="crispEdges"></path>
  <path d="M2198.6,328.3L2389.2,147.3L2114.7,219.2Z" fill="rgb(64,159,162)" shape-rendering="crispEdges"></path>
  <path d="M2318.2,744.6L2197.7,515.4L2118.4,725.4Z" fill="rgb(52,143,157)" shape-rendering="crispEdges"></path>
  <path d="M2359.3,933L2318.2,744.6L2117.9,987.1Z" fill="rgb(43,133,154)" shape-rendering="crispEdges"></path>
  <path d="M2117.9,987.1L2318.2,744.6L2118.4,725.4Z" fill="rgb(47,137,155)" shape-rendering="crispEdges"></path>
  <path d="M640.1,1575.5L743.8,1342.9L534.5,1360.1Z" fill="rgb(61,156,161)" shape-rendering="crispEdges"></path>
  <path d="M928.1,1537.8L819.1,1606.9L1121.8,1570.9Z" fill="rgb(55,148,158)" shape-rendering="crispEdges"></path>
  <path d="M1121.8,1570.9L819.1,1606.9L1552.9,1555.3Z" fill="rgb(51,143,157)" shape-rendering="crispEdges"></path>
  <path d="M640.1,1575.5L534.5,1360.1L368,1564.7Z" fill="rgb(63,159,162)" shape-rendering="crispEdges"></path>
  <path d="M368,1564.7L534.5,1360.1L403.9,1305.6Z" fill="rgb(65,161,162)" shape-rendering="crispEdges"></path>
  <path d="M2318.2,744.6L2394.5,537.2L2197.7,515.4Z" fill="rgb(52,143,157)" shape-rendering="crispEdges"></path>
  <path d="M2361.4,391.8L2389.2,147.3L2198.6,328.3Z" fill="rgb(61,155,160)" shape-rendering="crispEdges"></path>
  <path d="M2163.7,9.5L2239.4,-279.4L2014.8,-170.8Z" fill="rgb(71,171,165)" shape-rendering="crispEdges"></path>
  <path d="M2591.3,327.6L2389.2,147.3L2361.4,391.8Z" fill="rgb(58,152,159)" shape-rendering="crispEdges"></path>
  <path d="M19.7,819.9L-22.9,971.4L138.3,817.2Z" fill="rgb(82,190,170)" shape-rendering="crispEdges"></path>
  <path d="M-248,969.7L-22.9,971.4L19.7,819.9Z" fill="rgb(82,189,170)" shape-rendering="crispEdges"></path>
  <path d="M-202.2,622.9L19.7,819.9L3.1,568.5Z" fill="rgb(88,199,173)" shape-rendering="crispEdges"></path>
  <path d="M226,-275.6L12.5,-207.2L154.9,-64.9Z" fill="rgb(100,223,179)" shape-rendering="crispEdges"></path>
  <path d="M-160.4,138.9L12.8,343.8L4.1,134.8Z" fill="rgb(98,218,178)" shape-rendering="crispEdges"></path>
  <path d="M-160.4,138.9L-189.4,429.8L12.8,343.8Z" fill="rgb(96,214,177)" shape-rendering="crispEdges"></path>
  <path d="M1956.5,1506.3L1984.4,1385.7L1728.8,1387.6Z" fill="rgb(35,125,151)" shape-rendering="crispEdges"></path>
  <path d="M2013.8,1216.4L2170.4,1206.1L2117.9,987.1Z" fill="rgb(38,127,152)" shape-rendering="crispEdges"></path>
  <path d="M2120.8,1562.7L1772.3,1550.2L2440.2,1608.2Z" fill="rgb(29,120,150)" shape-rendering="crispEdges"></path>
  <path d="M1552.9,1555.3L1772.3,1550.2L1728.8,1387.6Z" fill="rgb(40,130,153)" shape-rendering="crispEdges"></path>
  <path d="M1984.4,1385.7L2170.4,1206.1L2013.8,1216.4Z" fill="rgb(33,124,151)" shape-rendering="crispEdges"></path>
  <path d="M2571.1,731.9L2524.1,531.4L2394.5,537.2Z" fill="rgb(48,138,155)" shape-rendering="crispEdges"></path>
  <path d="M2350.5,-65.2L2239.4,-279.4L2163.7,9.5Z" fill="rgb(69,168,164)" shape-rendering="crispEdges"></path>
  <path d="M2014.8,-170.8L2239.4,-279.4L1764.7,-247.5Z" fill="rgb(73,174,166)" shape-rendering="crispEdges"></path>
  <path d="M1764.7,-247.5L2239.4,-279.4L1616.5,-285.7Z" fill="rgb(75,178,167)" shape-rendering="crispEdges"></path>
  <path d="M2389.2,147.3L2350.5,-65.2L2163.7,9.5Z" fill="rgb(68,165,164)" shape-rendering="crispEdges"></path>
  <path d="M2362.7,1179.9L2359.3,933L2117.9,987.1Z" fill="rgb(37,127,152)" shape-rendering="crispEdges"></path>
  <path d="M-160.4,138.9L4.1,134.8L29.6,-78.8Z" fill="rgb(101,224,179)" shape-rendering="crispEdges"></path>
  <path d="M-252.9,-0.3L-160.4,138.9L29.6,-78.8Z" fill="rgb(102,226,180)" shape-rendering="crispEdges"></path>
  <path d="M-5.4,1192.5L129,1316.1L226.6,1204.5Z" fill="rgb(73,173,166)" shape-rendering="crispEdges"></path>
  <path d="M226.6,1204.5L129,1316.1L403.9,1305.6Z" fill="rgb(69,168,164)" shape-rendering="crispEdges"></path>
  <path d="M2350.5,-65.2L2314.9,-253.9L2239.4,-279.4Z" fill="rgb(69,167,164)" shape-rendering="crispEdges"></path>
  <path d="M-189.4,429.8L-202.2,622.9L3.1,568.5Z" fill="rgb(90,204,174)" shape-rendering="crispEdges"></path>
  <path d="M-22.9,971.4L-5.4,1192.5L241.5,960.1Z" fill="rgb(78,182,168)" shape-rendering="crispEdges"></path>
  <path d="M1772.3,1550.2L1956.5,1506.3L1728.8,1387.6Z" fill="rgb(37,127,152)" shape-rendering="crispEdges"></path>
  <path d="M1984.4,1385.7L2194,1422.5L2170.4,1206.1Z" fill="rgb(29,119,149)" shape-rendering="crispEdges"></path>
  <path d="M-200.4,1206.7L-5.4,1192.5L-22.9,971.4Z" fill="rgb(77,181,168)" shape-rendering="crispEdges"></path>
  <path d="M221.2,1596.1L368,1564.7L129,1316.1Z" fill="rgb(68,166,164)" shape-rendering="crispEdges"></path>
  <path d="M129,1316.1L368,1564.7L403.9,1305.6Z" fill="rgb(67,164,163)" shape-rendering="crispEdges"></path>
  <path d="M640.1,1575.5L221.2,1596.1L819.1,1606.9Z" fill="rgb(63,158,161)" shape-rendering="crispEdges"></path>
  <path d="M2571.1,731.9L2394.5,537.2L2318.2,744.6Z" fill="rgb(47,137,155)" shape-rendering="crispEdges"></path>
  <path d="M2394.5,537.2L2524.1,531.4L2361.4,391.8Z" fill="rgb(53,144,157)" shape-rendering="crispEdges"></path>
  <path d="M2389.2,147.3L2517.2,5L2350.5,-65.2Z" fill="rgb(66,162,163)" shape-rendering="crispEdges"></path>
  <path d="M2350.5,-65.2L2541.4,-208L2314.9,-253.9Z" fill="rgb(67,164,163)" shape-rendering="crispEdges"></path>
  <path d="M2567.1,132.5L2517.2,5L2389.2,147.3Z" fill="rgb(63,158,161)" shape-rendering="crispEdges"></path>
  <path d="M2170.4,1206.1L2362.7,1179.9L2117.9,987.1Z" fill="rgb(35,125,151)" shape-rendering="crispEdges"></path>
  <path d="M2359.3,933L2571.1,731.9L2318.2,744.6Z" fill="rgb(43,132,154)" shape-rendering="crispEdges"></path>
  <path d="M2336.1,1402.7L2362.7,1179.9L2170.4,1206.1Z" fill="rgb(27,118,149)" shape-rendering="crispEdges"></path>
  <path d="M-189.4,429.8L-270.4,752.9L-202.2,622.9Z" fill="rgb(89,202,174)" shape-rendering="crispEdges"></path>
  <path d="M-202.2,622.9L-270.4,752.9L19.7,819.9Z" fill="rgb(86,196,172)" shape-rendering="crispEdges"></path>
  <path d="M-252.9,-0.3L-270.4,752.9L-189.4,429.8Z" fill="rgb(94,210,176)" shape-rendering="crispEdges"></path>
  <path d="M-185.7,-196L-252.9,-0.3L29.6,-78.8Z" fill="rgb(102,227,180)" shape-rendering="crispEdges"></path>
  <path d="M-160.4,138.9L-252.9,-0.3L-189.4,429.8Z" fill="rgb(98,219,178)" shape-rendering="crispEdges"></path>
  <path d="M2754.7,313.6L2591.3,327.6L2774,580.5Z" fill="rgb(53,144,157)" shape-rendering="crispEdges"></path>
  <path d="M2524.1,531.4L2591.3,327.6L2361.4,391.8Z" fill="rgb(54,145,158)" shape-rendering="crispEdges"></path>
  <path d="M2591.3,327.6L2567.1,132.5L2389.2,147.3Z" fill="rgb(59,153,160)" shape-rendering="crispEdges"></path>
  <path d="M226,-275.6L-185.7,-196L12.5,-207.2Z" fill="rgb(102,227,180)" shape-rendering="crispEdges"></path>
  <path d="M12.5,-207.2L-185.7,-196L29.6,-78.8Z" fill="rgb(102,227,180)" shape-rendering="crispEdges"></path>
  <path d="M2120.8,1562.7L2194,1422.5L1984.4,1385.7Z" fill="rgb(29,120,150)" shape-rendering="crispEdges"></path>
  <path d="M2602.5,924.7L2571.1,731.9L2359.3,933Z" fill="rgb(38,128,152)" shape-rendering="crispEdges"></path>
  <path d="M-270.4,752.9L-248,969.7L19.7,819.9Z" fill="rgb(84,192,171)" shape-rendering="crispEdges"></path>
  <path d="M20.9,1625L221.2,1596.1L129,1316.1Z" fill="rgb(70,169,165)" shape-rendering="crispEdges"></path>
  <path d="M-51.1,1393L129,1316.1L-5.4,1192.5Z" fill="rgb(72,173,166)" shape-rendering="crispEdges"></path>
  <path d="M368,1564.7L221.2,1596.1L640.1,1575.5Z" fill="rgb(65,161,162)" shape-rendering="crispEdges"></path>
  <path d="M1772.3,1550.2L2120.8,1562.7L1956.5,1506.3Z" fill="rgb(33,123,151)" shape-rendering="crispEdges"></path>
  <path d="M1956.5,1506.3L2120.8,1562.7L1984.4,1385.7Z" fill="rgb(31,122,150)" shape-rendering="crispEdges"></path>
  <path d="M2194,1422.5L2336.1,1402.7L2170.4,1206.1Z" fill="rgb(25,117,149)" shape-rendering="crispEdges"></path>
  <path d="M2440.2,1608.2L1772.3,1550.2L1552.9,1555.3Z" fill="rgb(34,124,151)" shape-rendering="crispEdges"></path>
  <path d="M2720.3,-2.1L2517.2,5L2567.1,132.5Z" fill="rgb(63,158,161)" shape-rendering="crispEdges"></path>
  <path d="M2720.3,-2.1L2541.4,-208L2517.2,5Z" fill="rgb(64,160,162)" shape-rendering="crispEdges"></path>
  <path d="M2517.2,5L2541.4,-208L2350.5,-65.2Z" fill="rgb(66,162,163)" shape-rendering="crispEdges"></path>
  <path d="M2314.9,-253.9L2799.2,-273.9L2239.4,-279.4Z" fill="rgb(66,163,163)" shape-rendering="crispEdges"></path>
  <path d="M-200.4,1206.7L-51.1,1393L-5.4,1192.5Z" fill="rgb(74,175,166)" shape-rendering="crispEdges"></path>
  <path d="M2579,1150.3L2359.3,933L2362.7,1179.9Z" fill="rgb(31,121,150)" shape-rendering="crispEdges"></path>
  <path d="M2579,1150.3L2602.5,924.7L2359.3,933Z" fill="rgb(32,123,150)" shape-rendering="crispEdges"></path>
  <path d="M2774,580.5L2591.3,327.6L2524.1,531.4Z" fill="rgb(50,141,156)" shape-rendering="crispEdges"></path>
  <path d="M2440.2,1608.2L2336.1,1402.7L2194,1422.5Z" fill="rgb(21,115,148)" shape-rendering="crispEdges"></path>
  <path d="M-248,969.7L-200.4,1206.7L-22.9,971.4Z" fill="rgb(79,184,169)" shape-rendering="crispEdges"></path>
  <path d="M2550.1,1398.3L2579,1150.3L2362.7,1179.9Z" fill="rgb(20,114,148)" shape-rendering="crispEdges"></path>
  <path d="M2774,580.5L2524.1,531.4L2571.1,731.9Z" fill="rgb(46,136,155)" shape-rendering="crispEdges"></path>
  <path d="M2591.3,327.6L2775.2,211.5L2567.1,132.5Z" fill="rgb(58,151,159)" shape-rendering="crispEdges"></path>
  <path d="M2774,580.5L2571.1,731.9L2795.5,772Z" fill="rgb(43,133,154)" shape-rendering="crispEdges"></path>
  <path d="M2775.2,211.5L2720.3,-2.1L2567.1,132.5Z" fill="rgb(61,156,161)" shape-rendering="crispEdges"></path>
  <path d="M2795.5,772L2571.1,731.9L2602.5,924.7Z" fill="rgb(39,129,152)" shape-rendering="crispEdges"></path>
  <path d="M-214.2,1602.8L20.9,1625L-51.1,1393Z" fill="rgb(72,172,165)" shape-rendering="crispEdges"></path>
  <path d="M-51.1,1393L20.9,1625L129,1316.1Z" fill="rgb(71,171,165)" shape-rendering="crispEdges"></path>
  <path d="M221.2,1596.1L20.9,1625L819.1,1606.9Z" fill="rgb(66,163,163)" shape-rendering="crispEdges"></path>
  <path d="M2774,580.5L2775.2,211.5L2754.7,313.6Z" fill="rgb(54,146,158)" shape-rendering="crispEdges"></path>
  <path d="M2754.7,313.6L2775.2,211.5L2591.3,327.6Z" fill="rgb(56,149,159)" shape-rendering="crispEdges"></path>
  <path d="M2778.9,1029.3L2795.5,772L2602.5,924.7Z" fill="rgb(35,125,151)" shape-rendering="crispEdges"></path>
  <path d="M2774,580.5L2795.5,772L2775.2,211.5Z" fill="rgb(49,140,156)" shape-rendering="crispEdges"></path>
  <path d="M-248,969.7L-285.2,1366.8L-200.4,1206.7Z" fill="rgb(76,178,167)" shape-rendering="crispEdges"></path>
  <path d="M-200.4,1206.7L-285.2,1366.8L-51.1,1393Z" fill="rgb(72,173,166)" shape-rendering="crispEdges"></path>
  <path d="M-270.4,752.9L-285.2,1366.8L-248,969.7Z" fill="rgb(79,184,169)" shape-rendering="crispEdges"></path>
  <path d="M-252.9,-0.3L-285.2,1366.8L-270.4,752.9Z" fill="rgb(87,198,172)" shape-rendering="crispEdges"></path>
  <path d="M2336.1,1402.7L2550.1,1398.3L2362.7,1179.9Z" fill="rgb(18,113,147)" shape-rendering="crispEdges"></path>
  <path d="M2579,1150.3L2778.9,1029.3L2602.5,924.7Z" fill="rgb(29,120,150)" shape-rendering="crispEdges"></path>
  <path d="M2440.2,1608.2L2550.1,1398.3L2336.1,1402.7Z" fill="rgb(16,112,147)" shape-rendering="crispEdges"></path>
  <path d="M2842.8,1183.6L2778.9,1029.3L2579,1150.3Z" fill="rgb(25,117,149)" shape-rendering="crispEdges"></path>
  <path d="M819.1,1606.9L2440.2,1608.2L1552.9,1555.3Z" fill="rgb(42,132,153)" shape-rendering="crispEdges"></path>
  <path d="M2120.8,1562.7L2440.2,1608.2L2194,1422.5Z" fill="rgb(24,116,148)" shape-rendering="crispEdges"></path>
  <path d="M2844.6,1354.8L2842.8,1183.6L2579,1150.3Z" fill="rgb(19,113,147)" shape-rendering="crispEdges"></path>
  <path d="M2595.5,1619.1L2440.2,1608.2L819.1,1606.9Z" fill="rgb(33,123,151)" shape-rendering="crispEdges"></path>
  <path d="M-285.2,1366.8L-214.2,1602.8L-51.1,1393Z" fill="rgb(72,172,165)" shape-rendering="crispEdges"></path>
  <path d="M2775.2,211.5L2799.2,-273.9L2720.3,-2.1Z" fill="rgb(64,160,162)" shape-rendering="crispEdges"></path>
  <path d="M2720.3,-2.1L2799.2,-273.9L2541.4,-208Z" fill="rgb(64,160,162)" shape-rendering="crispEdges"></path>
  <path d="M2541.4,-208L2799.2,-273.9L2314.9,-253.9Z" fill="rgb(64,160,162)" shape-rendering="crispEdges"></path>
  <path d="M2239.4,-279.4L2799.2,-273.9L1616.5,-285.7Z" fill="rgb(70,169,165)" shape-rendering="crispEdges"></path>
  <path d="M2795.5,772L2799.2,-273.9L2775.2,211.5Z" fill="rgb(58,151,159)" shape-rendering="crispEdges"></path>
  <path d="M2778.9,1029.3L2842.8,1183.6L2795.5,772Z" fill="rgb(31,122,150)" shape-rendering="crispEdges"></path>
  <path d="M2795.5,772L2842.8,1183.6L2799.2,-273.9Z" fill="rgb(48,138,155)" shape-rendering="crispEdges"></path>
  <path d="M2844.6,1354.8L2579,1150.3L2550.1,1398.3Z" fill="rgb(13,110,146)" shape-rendering="crispEdges"></path>
  <path d="M2440.2,1608.2L2595.5,1619.1L2550.1,1398.3Z" fill="rgb(12,110,146)" shape-rendering="crispEdges"></path>
  <path d="M20.9,1625L2595.5,1619.1L819.1,1606.9Z" fill="rgb(52,143,157)" shape-rendering="crispEdges"></path>
  <path d="M2718,1559.7L2844.6,1354.8L2550.1,1398.3Z" fill="rgb(10,109,146)" shape-rendering="crispEdges"></path>
  <path d="M2595.5,1619.1L2718,1559.7L2550.1,1398.3Z" fill="rgb(10,109,146)" shape-rendering="crispEdges"></path>
</svg>
